<svg width="600" height="150" viewBox="0 0 600 150" fill="none" xmlns="http://www.w3.org/2000/svg">
<path d="M107.456 26.16V26.88C113.36 26.88 115.664 29.976 115.664 34.296V64.104L83.6965 26.16H67.4245V26.88C71.6005 27.6 75.3445 27.6 75.3445 35.016V69.864C75.3445 74.184 73.2565 77.28 67.4245 77.28V78H84.2005V77.28C78.2965 77.28 76.0645 74.184 76.0645 69.864V32.856L114.224 78H116.384V34.296C116.384 29.976 118.4 26.88 124.304 26.88V26.16H107.456ZM147.386 74.616C139.898 74.616 135.434 68.136 135.434 58.416C135.434 57.048 135.506 55.824 135.578 54.6H159.626C158.546 45.888 152.498 41.28 144.218 41.28C133.274 41.28 126.434 48.912 126.434 60C126.434 71.088 133.058 78.72 144.218 78.72C153.146 78.72 158.258 72.24 159.626 65.544L158.978 65.4C157.826 70.656 153.866 74.616 147.386 74.616ZM144.002 42C147.674 42 150.05 44.736 150.554 53.88H135.65C136.442 46.392 139.322 42 144.002 42ZM189.374 73.176C187.934 74.76 185.918 76.056 183.47 76.056C179.006 76.056 176.846 74.112 176.846 68.136V43.656H188.366V42H176.846V33.36H176.126L163.67 42.936V43.656H168.206V68.424C168.206 74.472 171.23 78.72 178.286 78.72C183.902 78.72 187.862 75.912 189.806 73.608L189.374 73.176ZM226.17 71.304V24H225.45L219.906 26.52C218.466 24.864 215.73 24 212.706 24C208.098 24 195.57 26.16 195.57 42L191.034 42.936V43.656H195.57V71.304C195.57 76.92 195.21 77.28 191.034 77.28V78H209.97V77.28C204.57 77.28 204.21 76.92 204.21 71.304V43.656H213.57V42H204.21V37.68C204.21 28.68 206.082 24.72 210.906 24.72C212.778 29.976 214.146 33.144 217.458 33.144H217.53V71.304C217.53 76.92 217.17 77.28 212.994 77.28V78H230.706V77.28C226.53 77.28 226.17 76.92 226.17 71.304ZM242.64 34.584C245.808 34.584 248.4 32.496 248.4 29.256C248.4 26.088 245.808 24 242.64 24C239.472 24 236.88 26.088 236.88 29.256C236.88 32.496 239.472 34.584 242.64 34.584ZM246.96 71.304V41.28H246.24L233.784 46.32V47.04C237.96 48.48 238.32 48.84 238.32 54.096V71.304C238.32 76.92 237.96 77.28 233.784 77.28V78H251.496V77.28C247.32 77.28 246.96 76.92 246.96 71.304ZM285.057 72.24L276.057 57.48L281.601 50.064C284.625 46.032 287.001 42.72 290.961 42.72V42H278.001V42.72C282.537 42.72 283.905 45.816 280.809 50.064L275.697 56.904L270.081 47.76C267.993 44.376 269.577 42.72 273.105 42.72V42H253.737V42.72C256.257 42.72 257.697 44.376 259.785 47.76L268.641 62.304L262.737 69.936C259.497 74.184 256.905 77.28 253.161 77.28V78H266.265V77.28C261.657 77.28 260.217 74.328 263.529 69.936L269.001 62.88L274.761 72.24C276.849 75.624 275.265 77.28 271.737 77.28V78H291.537V77.28C288.585 77.28 287.145 75.624 285.057 72.24ZM360.148 50.64V49.92H344.812V50.64C350.716 50.64 352.66 53.088 352.012 56.616C351.364 60.144 350.212 63.672 348.556 66.768L332.212 47.904C339.484 45.312 343.516 40.272 343.516 35.448C343.516 29.328 338.404 25.44 330.628 25.44C322.276 25.44 315.292 30.192 315.292 37.824C315.292 42.504 318.316 46.392 322.78 51.432L322.996 51.72C314.86 54.6 309.028 58.92 309.028 66.12C309.028 74.184 316.804 78.72 327.316 78.72C334.228 78.72 339.196 76.992 342.796 74.472L345.892 78H360.148V77.28C357.844 77.28 355.612 74.976 353.092 72.024L349.132 67.416C351.292 63.6 352.228 59.568 352.732 56.616C353.308 53.088 354.676 50.64 360.148 50.64ZM330.988 26.16C335.812 26.16 337.54 30.552 337.54 34.656C337.54 38.328 335.956 44.88 331.708 47.328C328.54 43.656 323.932 38.904 323.932 33.648C323.932 29.904 326.308 26.16 330.988 26.16ZM331.348 77.064C323.068 77.064 319.468 70.944 319.468 64.536C319.468 59.208 320.836 55.104 323.572 52.368L342.292 73.824C339.412 75.84 335.812 77.064 331.348 77.064ZM425.461 26.16L422.077 30.336C417.829 27.24 412.285 25.44 406.453 25.44C388.165 25.44 378.661 37.392 378.661 52.08C378.661 66.768 388.165 78.72 406.453 78.72C412.285 78.72 417.829 76.92 422.077 73.824L425.461 78H426.181V62.16H425.461C423.229 70.296 414.877 78 406.453 78C395.005 78 389.317 69 389.317 52.08C389.317 35.16 395.005 26.16 406.453 26.16C414.877 26.16 423.229 33.864 425.461 42H426.181V26.16H425.461ZM467.345 71.304V51.36C467.345 45.528 464.321 41.28 457.481 41.28C452.153 41.28 447.833 45.456 445.241 48.84V24H444.521L432.065 27.6V28.32C436.241 30.264 436.601 30.624 436.601 35.88V71.304C436.601 76.92 436.241 77.28 432.065 77.28V78H449.777V77.28C445.601 77.28 445.241 76.92 445.241 71.304V49.56C447.041 48.408 449.417 47.04 452.585 47.04C456.545 47.04 458.705 49.2 458.705 53.52V71.304C458.705 76.92 458.345 77.28 454.097 77.28V78H471.881V77.28C467.705 77.28 467.345 76.92 467.345 71.304ZM483.812 34.584C486.98 34.584 489.572 32.496 489.572 29.256C489.572 26.088 486.98 24 483.812 24C480.644 24 478.052 26.088 478.052 29.256C478.052 32.496 480.644 34.584 483.812 34.584ZM488.132 71.304V41.28H487.412L474.956 46.32V47.04C479.132 48.48 479.492 48.84 479.492 54.096V71.304C479.492 76.92 479.132 77.28 474.956 77.28V78H492.668V77.28C488.492 77.28 488.132 76.92 488.132 71.304ZM508.944 71.304V24H508.224L495.768 27.6V28.32C499.944 30.264 500.304 30.624 500.304 35.88V71.304C500.304 76.92 499.944 77.28 495.768 77.28V78H513.48V77.28C509.304 77.28 508.944 76.92 508.944 71.304ZM529.757 71.304V24H529.037L516.581 27.6V28.32C520.757 30.264 521.117 30.624 521.117 35.88V71.304C521.117 76.92 520.757 77.28 516.581 77.28V78H534.293V77.28C530.117 77.28 529.757 76.92 529.757 71.304Z" fill="black"/>
<path d="M174.094 121.84L167.638 113.848L172.438 108.88C173.47 107.8 174.574 106.96 176.374 106.96V106.72H169.894V106.96C172.102 106.96 172.534 108.4 171.766 109.192L166.822 114.304C166.198 114.976 165.598 115.096 164.614 115.12V108.88C164.614 107.2 164.734 106.96 166.534 106.96V106.72H160.054V106.96C161.854 106.96 161.974 107.2 161.974 108.88V121.84C161.974 123.52 161.854 123.76 160.054 123.76V124H166.534V123.76C164.734 123.76 164.614 123.52 164.614 121.84V115.36C165.166 115.384 165.454 115.48 165.814 115.912L172.294 124H177.094V123.76C175.774 123.76 174.862 122.8 174.094 121.84ZM188.619 121.84V115.12C188.619 113.176 187.707 111.76 185.499 111.76C183.723 111.76 182.283 113.224 181.419 114.208L181.179 111.76H180.939L177.579 113.44V113.68C179.139 114.16 179.259 114.28 179.259 115.96V121.84C179.259 123.64 179.139 123.76 177.579 123.76V124H183.099V123.76C181.539 123.76 181.419 123.64 181.419 121.84V114.448C182.091 113.968 182.883 113.44 184.179 113.44C185.499 113.44 186.459 114.088 186.459 115.84V121.84C186.459 123.64 186.339 123.76 184.779 123.76V124H190.299V123.76C188.739 123.76 188.619 123.64 188.619 121.84ZM197.598 124.24C201.198 124.24 203.478 121.48 203.478 118C203.478 114.52 201.198 111.76 197.598 111.76C193.998 111.76 191.718 114.52 191.718 118C191.718 121.48 193.998 124.24 197.598 124.24ZM197.598 124C195.198 124 193.998 121.72 193.998 118C193.998 114.28 195.198 112 197.598 112C199.998 112 201.198 114.28 201.198 118C201.198 121.72 199.998 124 197.598 124ZM218.722 112V112.24C220.522 112.24 220.954 112.912 220.402 114.64L218.05 122.104L215.242 114.16C214.786 112.864 215.122 112.24 216.682 112.24V112H211.042V112.24C212.122 112.24 212.506 112.912 212.962 114.16L213.178 114.736L210.85 122.104L208.042 114.16C207.586 112.864 207.922 112.24 209.482 112.24V112H203.842V112.24C204.922 112.24 205.306 112.912 205.762 114.16L209.362 124.12H210.442L213.298 115.096L216.562 124.12H217.642L220.642 114.64C221.146 113.08 221.962 112.24 223.042 112.24V112H218.722ZM227.123 121.84V106H226.883L223.283 107.2V107.44C224.843 108.16 224.963 108.28 224.963 109.96V121.84C224.963 123.64 224.843 123.76 223.283 123.76V124H228.803V123.76C227.243 123.76 227.123 123.64 227.123 121.84ZM236.634 123.28C234.186 123.28 232.506 121.072 232.506 117.64C232.506 117.088 232.53 116.56 232.602 116.08H240.906C240.426 113.176 238.554 111.76 235.986 111.76C232.41 111.76 230.226 114.304 230.226 118C230.226 121.696 232.41 124.24 235.986 124.24C239.058 124.24 240.426 122.08 240.906 120.16L240.69 120.112C240.234 121.912 238.962 123.28 236.634 123.28ZM235.914 112C237.282 112 238.29 112.792 238.482 115.84H232.626C233.01 113.392 234.21 112 235.914 112ZM253.612 106L250.012 107.2V107.44C251.572 108.16 251.692 108.28 251.692 109.96V112.864C250.66 112.024 249.412 111.76 248.332 111.76C244.996 111.76 242.812 114.304 242.812 118C242.812 121.696 244.996 124.24 247.852 124.24C249.724 124.24 251.092 122.848 251.692 121.816L251.932 124.24H252.172L255.532 123.52V123.28C253.972 123.28 253.852 123.16 253.852 121.24V106H253.612ZM248.5 122.92C246.652 122.92 245.092 121.552 245.092 117.88C245.092 113.944 246.412 112 248.38 112C249.748 112 251.692 112.696 251.692 116.68V121.552C251.116 122.152 250.132 122.92 248.5 122.92ZM264.264 121.6H258.864C258.216 121.6 257.664 121.408 257.664 120.76C257.664 120.064 258.312 119.584 259.68 119.056C260.352 119.32 261.096 119.44 261.864 119.44C264.264 119.44 266.544 118.24 266.544 115.6C266.544 114.52 266.16 113.68 265.536 113.056C266.544 113.272 267.168 113.92 267.864 113.92C268.584 113.92 268.944 113.44 268.944 112.84C268.944 112.24 268.584 111.76 267.864 111.76C267.096 111.76 266.424 112.624 265.248 112.792C264.36 112.096 263.136 111.76 261.864 111.76C259.464 111.76 257.184 112.96 257.184 115.6C257.184 117.256 258.096 118.36 259.368 118.936C257.808 119.536 256.704 120.376 256.704 121.6C256.704 123.184 258.144 123.76 259.416 123.76H259.656C257.472 124.552 256.464 125.752 256.464 126.88C256.464 129.52 259.464 130 262.104 130C265.944 130 268.704 128.08 268.704 125.2C268.704 122.8 267.144 121.6 264.264 121.6ZM261.864 112C263.064 112 264.264 112.6 264.264 115.6C264.264 118.6 263.064 119.2 261.864 119.2C260.664 119.2 259.464 118.6 259.464 115.6C259.464 112.6 260.664 112 261.864 112ZM262.104 129.76C259.944 129.76 258.264 128.92 258.264 126.64C258.264 125.08 259.32 124.24 260.256 123.76H263.784C265.704 123.76 266.664 124.48 266.664 125.92C266.664 128.44 264.744 129.76 262.104 129.76ZM275.47 123.28C273.022 123.28 271.342 121.072 271.342 117.64C271.342 117.088 271.366 116.56 271.438 116.08H279.742C279.262 113.176 277.39 111.76 274.822 111.76C271.246 111.76 269.062 114.304 269.062 118C269.062 121.696 271.246 124.24 274.822 124.24C277.894 124.24 279.262 122.08 279.742 120.16L279.526 120.112C279.07 121.912 277.798 123.28 275.47 123.28ZM274.75 112C276.118 112 277.126 112.792 277.318 115.84H271.462C271.846 113.392 273.046 112 274.75 112ZM302.796 114.88V114.64H297.996V114.88C299.796 114.88 300.468 115.6 300.276 116.8C300.06 118.096 299.652 119.392 298.98 120.496L293.244 113.992C295.692 113.128 296.916 111.232 296.916 109.744C296.916 107.68 295.404 106.48 292.86 106.48C290.292 106.48 288.156 108.016 288.156 110.416C288.156 111.976 289.116 113.272 290.532 114.856L290.604 114.928C288.444 115.888 286.236 117.4 286.236 119.92C286.236 122.584 288.516 124.24 291.996 124.24C294.444 124.24 296.172 123.592 297.42 122.656L298.596 124H302.796V123.76C301.956 123.76 301.26 123.112 300.156 121.84L299.172 120.712C300.084 119.248 300.372 117.688 300.516 116.8C300.708 115.6 300.996 114.88 302.796 114.88ZM293.028 106.72C294.636 106.72 295.236 108.328 295.236 109.6C295.236 110.848 294.708 113.128 293.124 113.848C291.828 112.384 290.556 111.088 290.556 109.336C290.556 108.256 291.276 106.72 293.028 106.72ZM293.004 123.76C290.268 123.76 288.996 121.696 288.996 119.536C288.996 117.712 289.524 116.2 290.772 115.144L297.228 122.44C296.148 123.256 294.756 123.76 293.004 123.76ZM315.772 106.72H308.812V106.96C310.612 106.96 310.732 107.2 310.732 108.88V121.84C310.732 123.52 310.612 123.76 308.812 123.76V124H316.732C322.588 124 326.332 120.256 326.332 115.36C326.332 110.464 322.588 106.72 315.772 106.72ZM316.732 123.76H315.772C313.732 123.76 313.372 123.04 313.372 120.64V106.96H315.772C321.196 106.96 323.572 109.96 323.572 115.36C323.572 120.76 320.716 123.76 316.732 123.76ZM330.926 124.24C332.438 124.24 333.638 123.352 334.742 121.96C334.742 123.52 335.63 124.24 336.782 124.24C337.742 124.24 338.702 123.64 339.302 121.96L339.11 121.888C338.87 122.512 338.51 123.28 337.742 123.28C337.214 123.28 336.902 122.92 336.902 122.32V114.16C336.902 112.336 335.966 111.76 334.382 111.76C333.326 111.76 332.222 112.144 330.638 113.128C328.838 114.256 328.382 114.904 328.382 115.576C328.382 116.176 328.766 116.56 329.342 116.56C330.446 116.56 330.782 115.576 330.782 113.296C331.286 112.984 332.054 112.456 333.182 112.456C334.238 112.456 334.742 113.008 334.742 114.136V116.92C330.182 119.152 328.502 120.064 328.502 121.744C328.502 123.304 329.462 124.24 330.926 124.24ZM332.462 123.16C331.478 123.16 330.662 122.488 330.662 121.12C330.662 119.44 331.502 118.624 334.742 117.16V121.72C334.118 122.44 333.446 123.16 332.462 123.16ZM347.924 122.656C347.396 123.136 346.748 123.52 345.908 123.52C344.348 123.52 343.508 122.992 343.508 120.52V112.48H347.588V112H343.508V109.12H343.268L339.668 112.24V112.48H341.348V120.88C341.348 122.824 342.26 124.24 344.468 124.24C346.268 124.24 347.396 123.448 348.068 122.8L347.924 122.656ZM351.34 124.24C352.852 124.24 354.052 123.352 355.156 121.96C355.156 123.52 356.044 124.24 357.196 124.24C358.156 124.24 359.116 123.64 359.716 121.96L359.524 121.888C359.284 122.512 358.924 123.28 358.156 123.28C357.628 123.28 357.316 122.92 357.316 122.32V114.16C357.316 112.336 356.38 111.76 354.796 111.76C353.74 111.76 352.636 112.144 351.052 113.128C349.252 114.256 348.796 114.904 348.796 115.576C348.796 116.176 349.18 116.56 349.756 116.56C350.86 116.56 351.196 115.576 351.196 113.296C351.7 112.984 352.468 112.456 353.596 112.456C354.652 112.456 355.156 113.008 355.156 114.136V116.92C350.596 119.152 348.916 120.064 348.916 121.744C348.916 123.304 349.876 124.24 351.34 124.24ZM352.876 123.16C351.892 123.16 351.076 122.488 351.076 121.12C351.076 119.44 351.916 118.624 355.156 117.16V121.72C354.532 122.44 353.86 123.16 352.876 123.16ZM370.043 115.84H372.947C376.091 115.84 378.923 114.424 378.923 111.28C378.923 108.016 376.091 106.72 372.947 106.72H365.483V106.96C367.283 106.96 367.403 107.2 367.403 108.88V121.84C367.403 123.52 367.283 123.76 365.483 123.76V124H372.203V123.76C370.163 123.76 370.043 123.52 370.043 121.84V115.84ZM370.043 115.6V106.96H372.947C374.627 106.96 376.163 107.848 376.163 111.28C376.163 114.592 374.627 115.6 372.947 115.6H370.043ZM386.612 111.76C385.316 111.76 384.452 113.2 383.732 114.52L383.492 111.76H383.252L379.892 113.44V113.68C381.452 114.16 381.572 114.28 381.572 115.96V121.84C381.572 123.64 381.452 123.76 379.892 123.76V124H385.652V123.76C383.852 123.76 383.732 123.64 383.732 121.84V114.76C384.26 114.064 384.62 113.704 385.172 113.32C385.556 113.896 386.06 114.4 386.852 114.4C387.548 114.4 388.052 113.848 388.052 113.104C388.052 112.216 387.38 111.76 386.612 111.76ZM394.285 124.24C397.885 124.24 400.165 121.48 400.165 118C400.165 114.52 397.885 111.76 394.285 111.76C390.685 111.76 388.405 114.52 388.405 118C388.405 121.48 390.685 124.24 394.285 124.24ZM394.285 124C391.885 124 390.685 121.72 390.685 118C390.685 114.28 391.885 112 394.285 112C396.685 112 397.885 114.28 397.885 118C397.885 121.72 396.685 124 394.285 124ZM404.349 108.88C405.213 108.88 405.909 108.304 405.909 107.44C405.909 106.576 405.213 106 404.349 106C403.485 106 402.789 106.576 402.789 107.44C402.789 108.304 403.485 108.88 404.349 108.88ZM401.589 113.44V113.68C403.149 114.16 403.269 114.28 403.269 115.96V125.272C403.269 128.44 402.813 129.76 401.109 129.76V130C402.693 130 405.429 129.208 405.429 124.24V111.76H405.189L401.589 113.44ZM414.806 123.28C412.358 123.28 410.678 121.072 410.678 117.64C410.678 117.088 410.702 116.56 410.774 116.08H419.078C418.598 113.176 416.726 111.76 414.158 111.76C410.582 111.76 408.398 114.304 408.398 118C408.398 121.696 410.582 124.24 414.158 124.24C417.23 124.24 418.598 122.08 419.078 120.16L418.862 120.112C418.406 121.912 417.134 123.28 414.806 123.28ZM414.086 112C415.454 112 416.462 112.792 416.654 115.84H410.798C411.182 113.392 412.382 112 414.086 112ZM440.759 122.656C440.231 123.136 439.583 123.52 438.743 123.52C437.183 123.52 436.343 122.992 436.343 120.52V112.48H440.423V112H436.343C436.343 108.52 435.839 106 432.335 106C428.975 106 428.015 108.256 428.015 110.56C428.015 110.992 428.039 111.4 428.111 111.808C427.751 111.784 427.391 111.76 426.983 111.76C423.407 111.76 420.983 114.304 420.983 118C420.983 121.696 423.167 124.24 426.743 124.24C429.815 124.24 431.183 122.08 431.663 120.16L431.447 120.112C431.111 121.36 430.199 123.28 427.391 123.28C424.943 123.28 423.263 121.072 423.263 117.64C423.263 114.424 424.511 112 426.959 112C427.391 112 427.775 112.024 428.135 112.144C428.519 114.04 429.383 114.88 430.247 114.88C431.039 114.88 431.375 114.328 431.375 113.8C431.375 112.672 430.199 112.048 428.423 111.832C428.351 111.376 428.303 110.896 428.303 110.44C428.303 108.448 429.143 106.24 432.335 106.24C434.663 106.24 435.455 107.584 435.455 108.928C435.455 110.536 434.687 111.688 432.503 112.24V112.48H434.183V120.88C434.183 122.824 435.095 124.24 437.303 124.24C439.103 124.24 440.231 123.448 440.903 122.8L440.759 122.656Z" fill="black"/>
</svg>
